<svg id="visual" viewBox="0 0 900 600" width="900" height="600" xmlns="http://www.w3.org/2000/svg" xmlns:xlink="http://www.w3.org/1999/xlink" version="1.1"><g stroke-width="1" stroke-linejoin="bevel"><path d="M483 286L564 266L532 169Z" fill="#15384f" stroke="#15384f"></path><path d="M532 169L387 233L483 286Z" fill="#081a28" stroke="#081a28"></path><path d="M483 114L387 233L532 169Z" fill="#1d4e6b" stroke="#1d4e6b"></path><path d="M564 266L627 172L532 169Z" fill="#081a28" stroke="#081a28"></path><path d="M532 169L606 86L483 114Z" fill="#205a7a" stroke="#205a7a"></path><path d="M387 233L362 302L483 286Z" fill="#1d4e6b" stroke="#1d4e6b"></path><path d="M627 172L606 86L532 169Z" fill="#246688" stroke="#246688"></path><path d="M564 266L688 204L627 172Z" fill="#297ea6" stroke="#297ea6"></path><path d="M627 172L679 88L606 86Z" fill="#246688" stroke="#246688"></path><path d="M424 426L486 411L483 286Z" fill="#081a28" stroke="#081a28"></path><path d="M483 286L599 408L564 266Z" fill="#112e42" stroke="#112e42"></path><path d="M564 266L728 312L688 204Z" fill="#297ea6" stroke="#297ea6"></path><path d="M486 411L599 408L483 286Z" fill="#00101c" stroke="#00101c"></path><path d="M439 0L390 70L483 114Z" fill="#00101c" stroke="#00101c"></path><path d="M483 114L390 70L387 233Z" fill="#00101c" stroke="#00101c"></path><path d="M290 226L333 334L362 302Z" fill="#19435d" stroke="#19435d"></path><path d="M290 226L362 302L387 233Z" fill="#15384f" stroke="#15384f"></path><path d="M362 302L424 426L483 286Z" fill="#081a28" stroke="#081a28"></path><path d="M333 334L424 426L362 302Z" fill="#297ea6" stroke="#297ea6"></path><path d="M486 411L606 470L599 408Z" fill="#246688" stroke="#246688"></path><path d="M688 204L679 88L627 172Z" fill="#15384f" stroke="#15384f"></path><path d="M606 86L514 0L483 114Z" fill="#112e42" stroke="#112e42"></path><path d="M293 100L290 226L387 233Z" fill="#15384f" stroke="#15384f"></path><path d="M594 0L514 0L606 86Z" fill="#277297" stroke="#277297"></path><path d="M708 362L728 312L564 266Z" fill="#19435d" stroke="#19435d"></path><path d="M688 204L837 116L679 88Z" fill="#246688" stroke="#246688"></path><path d="M599 408L708 362L564 266Z" fill="#277297" stroke="#277297"></path><path d="M514 0L439 0L483 114Z" fill="#081a28" stroke="#081a28"></path><path d="M686 0L594 0L606 86Z" fill="#081a28" stroke="#081a28"></path><path d="M421 493L464 479L424 426Z" fill="#1d4e6b" stroke="#1d4e6b"></path><path d="M424 426L464 479L486 411Z" fill="#205a7a" stroke="#205a7a"></path><path d="M599 408L710 480L708 362Z" fill="#205a7a" stroke="#205a7a"></path><path d="M390 70L293 100L387 233Z" fill="#277297" stroke="#277297"></path><path d="M286 0L293 100L390 70Z" fill="#15384f" stroke="#15384f"></path><path d="M464 479L606 470L486 411Z" fill="#00101c" stroke="#00101c"></path><path d="M795 432L772 327L708 362Z" fill="#0c2435" stroke="#0c2435"></path><path d="M708 362L772 327L728 312Z" fill="#112e42" stroke="#112e42"></path><path d="M728 312L819 211L688 204Z" fill="#112e42" stroke="#112e42"></path><path d="M326 465L421 493L424 426Z" fill="#19435d" stroke="#19435d"></path><path d="M464 479L539 600L606 470Z" fill="#1d4e6b" stroke="#1d4e6b"></path><path d="M824 0L686 0L679 88Z" fill="#1d4e6b" stroke="#1d4e6b"></path><path d="M679 88L686 0L606 86Z" fill="#246688" stroke="#246688"></path><path d="M286 0L239 108L293 100Z" fill="#297ea6" stroke="#297ea6"></path><path d="M293 100L239 108L290 226Z" fill="#15384f" stroke="#15384f"></path><path d="M265 423L326 465L333 334Z" fill="#19435d" stroke="#19435d"></path><path d="M333 334L326 465L424 426Z" fill="#081a28" stroke="#081a28"></path><path d="M204 301L333 334L290 226Z" fill="#205a7a" stroke="#205a7a"></path><path d="M772 327L819 211L728 312Z" fill="#277297" stroke="#277297"></path><path d="M239 108L201 214L290 226Z" fill="#00101c" stroke="#00101c"></path><path d="M204 301L265 423L333 334Z" fill="#112e42" stroke="#112e42"></path><path d="M201 214L204 301L290 226Z" fill="#0c2435" stroke="#0c2435"></path><path d="M606 470L710 480L599 408Z" fill="#00101c" stroke="#00101c"></path><path d="M609 600L710 480L606 470Z" fill="#0c2435" stroke="#0c2435"></path><path d="M439 0L286 0L390 70Z" fill="#0c2435" stroke="#0c2435"></path><path d="M819 211L837 116L688 204Z" fill="#297ea6" stroke="#297ea6"></path><path d="M710 480L795 432L708 362Z" fill="#00101c" stroke="#00101c"></path><path d="M900 328L900 187L819 211Z" fill="#246688" stroke="#246688"></path><path d="M819 211L900 187L837 116Z" fill="#277297" stroke="#277297"></path><path d="M371 600L539 600L421 493Z" fill="#277297" stroke="#277297"></path><path d="M421 493L539 600L464 479Z" fill="#112e42" stroke="#112e42"></path><path d="M710 480L805 525L795 432Z" fill="#205a7a" stroke="#205a7a"></path><path d="M239 108L139 223L201 214Z" fill="#297ea6" stroke="#297ea6"></path><path d="M201 214L139 223L204 301Z" fill="#297ea6" stroke="#297ea6"></path><path d="M204 301L180 405L265 423Z" fill="#15384f" stroke="#15384f"></path><path d="M64 62L139 223L239 108Z" fill="#205a7a" stroke="#205a7a"></path><path d="M104 405L180 405L204 301Z" fill="#081a28" stroke="#081a28"></path><path d="M294 600L371 600L326 465Z" fill="#205a7a" stroke="#205a7a"></path><path d="M326 465L371 600L421 493Z" fill="#00101c" stroke="#00101c"></path><path d="M539 600L609 600L606 470Z" fill="#112e42" stroke="#112e42"></path><path d="M837 116L824 0L679 88Z" fill="#00101c" stroke="#00101c"></path><path d="M900 328L819 211L772 327Z" fill="#0c2435" stroke="#0c2435"></path><path d="M837 116L900 60L824 0Z" fill="#205a7a" stroke="#205a7a"></path><path d="M286 0L192 0L239 108Z" fill="#0c2435" stroke="#0c2435"></path><path d="M294 600L326 465L197 532Z" fill="#15384f" stroke="#15384f"></path><path d="M900 372L900 328L772 327Z" fill="#0c2435" stroke="#0c2435"></path><path d="M900 501L900 372L795 432Z" fill="#277297" stroke="#277297"></path><path d="M795 432L900 372L772 327Z" fill="#277297" stroke="#277297"></path><path d="M730 600L805 525L710 480Z" fill="#19435d" stroke="#19435d"></path><path d="M900 187L900 60L837 116Z" fill="#0c2435" stroke="#0c2435"></path><path d="M197 532L326 465L265 423Z" fill="#205a7a" stroke="#205a7a"></path><path d="M609 600L730 600L710 480Z" fill="#081a28" stroke="#081a28"></path><path d="M180 405L197 532L265 423Z" fill="#081a28" stroke="#081a28"></path><path d="M104 405L197 532L180 405Z" fill="#112e42" stroke="#112e42"></path><path d="M70 304L104 405L204 301Z" fill="#246688" stroke="#246688"></path><path d="M139 223L70 304L204 301Z" fill="#1d4e6b" stroke="#1d4e6b"></path><path d="M0 186L70 304L139 223Z" fill="#205a7a" stroke="#205a7a"></path><path d="M900 60L900 0L824 0Z" fill="#0c2435" stroke="#0c2435"></path><path d="M900 600L900 501L805 525Z" fill="#0c2435" stroke="#0c2435"></path><path d="M805 525L900 501L795 432Z" fill="#112e42" stroke="#112e42"></path><path d="M192 0L64 62L239 108Z" fill="#081a28" stroke="#081a28"></path><path d="M730 600L822 600L805 525Z" fill="#205a7a" stroke="#205a7a"></path><path d="M192 0L77 0L64 62Z" fill="#112e42" stroke="#112e42"></path><path d="M138 600L187 600L197 532Z" fill="#1d4e6b" stroke="#1d4e6b"></path><path d="M197 532L187 600L294 600Z" fill="#00101c" stroke="#00101c"></path><path d="M0 79L0 186L64 62Z" fill="#15384f" stroke="#15384f"></path><path d="M64 62L0 186L139 223Z" fill="#297ea6" stroke="#297ea6"></path><path d="M70 304L0 376L104 405Z" fill="#297ea6" stroke="#297ea6"></path><path d="M104 405L67 505L197 532Z" fill="#00101c" stroke="#00101c"></path><path d="M0 186L0 281L70 304Z" fill="#297ea6" stroke="#297ea6"></path><path d="M0 376L67 505L104 405Z" fill="#19435d" stroke="#19435d"></path><path d="M67 505L138 600L197 532Z" fill="#0c2435" stroke="#0c2435"></path><path d="M0 281L0 376L70 304Z" fill="#19435d" stroke="#19435d"></path><path d="M0 0L0 79L64 62Z" fill="#297ea6" stroke="#297ea6"></path><path d="M822 600L900 600L805 525Z" fill="#205a7a" stroke="#205a7a"></path><path d="M77 0L0 0L64 62Z" fill="#297ea6" stroke="#297ea6"></path><path d="M0 376L0 533L67 505Z" fill="#19435d" stroke="#19435d"></path><path d="M67 505L0 600L138 600Z" fill="#0c2435" stroke="#0c2435"></path><path d="M0 533L0 600L67 505Z" fill="#1d4e6b" stroke="#1d4e6b"></path></g></svg>